<?xml version="1.0" standalone="no"?>
<!DOCTYPE svg PUBLIC "-//W3C//DTD SVG 20010904//EN"
 "http://www.w3.org/TR/2001/REC-SVG-20010904/DTD/svg10.dtd">
<svg version="1.0" xmlns="http://www.w3.org/2000/svg"
 width="100.000000pt" height="40.000000pt" viewBox="0 0 1024.000000 1024.000000"
 preserveAspectRatio="xMidYMid meet">

<g transform="translate(0.000000,1024.000000) scale(0.100000,-0.100000)"
fill="#000000" stroke="none">
<path d="M6479 7980 c-37 -9 -77 -32 -529 -300 -248 -147 -335 -198 -696 -408
-77 -45 -146 -82 -153 -82 -7 0 -101 51 -209 114 -1199 692 -1158 669 -1223
674 -73 5 -41 22 -689 -363 -113 -67 -258 -153 -323 -191 -361 -210 -472 -281
-501 -317 l-31 -39 -3 -824 c-2 -815 -2 -824 18 -864 12 -23 37 -52 58 -66 46
-32 368 -223 812 -482 380 -221 569 -332 572 -335 2 -1 5 -363 8 -804 l5 -802
35 -36 c19 -19 82 -63 140 -97 58 -34 148 -87 200 -119 52 -31 271 -159 485
-284 215 -126 433 -253 485 -284 92 -54 97 -56 170 -56 l75 0 325 189 c179
104 357 208 395 231 39 23 201 117 360 210 160 92 305 182 323 199 66 61 62 9
62 868 l0 784 88 53 c84 52 594 354 697 413 346 197 593 350 620 382 l30 38 3
831 c2 581 -1 840 -8 858 -20 47 -72 85 -275 202 -110 63 -276 159 -370 214
-690 405 -828 484 -867 493 -23 5 -45 9 -48 9 -3 -1 -21 -5 -41 -9z m196 -358
c371 -207 1102 -645 1133 -678 l22 -25 0 -684 c0 -504 -3 -691 -12 -710 -12
-26 -60 -59 -253 -170 -55 -32 -120 -70 -145 -85 -25 -15 -139 -83 -255 -150
-208 -121 -314 -184 -532 -314 l-112 -67 -68 39 c-69 40 -649 382 -958 565
-93 56 -187 114 -207 130 l-38 29 0 715 0 715 28 27 c27 26 290 187 717 437
121 71 285 168 365 216 80 48 152 87 160 88 9 0 78 -35 155 -78z m-2919 27
c79 -42 1082 -618 1161 -667 25 -16 47 -39 53 -56 15 -42 14 -1377 -1 -1409
-6 -14 -30 -35 -53 -47 -22 -13 -104 -60 -181 -105 -77 -46 -194 -114 -260
-153 -66 -38 -221 -129 -345 -202 -124 -73 -271 -160 -328 -192 l-102 -60 -78
43 c-162 88 -615 346 -1116 636 -61 34 -113 69 -118 75 -4 7 -8 329 -8 715 l0
702 23 24 c12 13 101 71 197 127 96 57 234 138 305 180 181 107 500 295 624
369 58 33 115 61 126 61 12 0 57 -19 101 -41z m1514 -2487 c152 -87 372 -215
520 -304 41 -24 143 -84 225 -132 83 -49 173 -103 200 -121 28 -18 77 -48 110
-66 33 -18 63 -38 67 -43 4 -6 8 -333 8 -727 0 -669 -1 -717 -17 -731 -35 -31
-728 -445 -1146 -684 -33 -19 -72 -43 -87 -54 -36 -25 -35 -25 -89 9 -25 16
-179 106 -341 201 -418 245 -842 499 -862 518 -17 14 -18 63 -18 752 l0 736
378 226 c207 124 483 289 612 366 130 78 246 141 260 141 15 1 92 -37 180 -87z"/>
</g>
</svg>
